<?xml version="1.0" standalone="no"?>
<!DOCTYPE svg PUBLIC "-//W3C//DTD SVG 20010904//EN"
 "http://www.w3.org/TR/2001/REC-SVG-20010904/DTD/svg10.dtd">
<svg version="1.0" xmlns="http://www.w3.org/2000/svg"
 width="159.000000pt" height="159.000000pt" viewBox="0 0 159.000000 159.000000"
 preserveAspectRatio="xMidYMid meet">
<metadata>
Created by potrace 1.11, written by Peter Selinger 2001-2013
</metadata>
<g transform="translate(0.000000,159.000000) scale(0.100000,-0.100000)"
fill="#000000" stroke="none">
<path d="M690 1355 c-216 -49 -391 -214 -456 -430 -26 -86 -24 -248 4 -334 12
-36 19 -68 17 -71 -3 -4 -31 -10 -63 -13 -55 -4 -161 -41 -151 -52 3 -2 27 3
54 12 107 34 544 13 660 -32 72 -28 188 -50 213 -40 11 5 -5 12 -53 22 -38 8
-88 23 -110 33 l-40 18 40 1 c22 1 66 8 99 15 53 13 62 12 102 -5 24 -11 74
-22 111 -24 l68 -5 -60 14 c-74 17 -115 33 -115 43 1 5 29 24 63 44 47 27 77
37 127 42 101 9 132 26 35 19 l-80 -5 18 24 c55 77 88 176 86 262 l0 42 -18
-60 c-9 -33 -23 -71 -30 -85 -19 -35 -82 -112 -88 -106 -2 2 7 33 21 67 14 35
24 65 22 66 -7 8 -41 -55 -61 -112 -20 -57 -24 -62 -84 -94 l-63 -33 7 33 c4
19 20 62 36 95 16 34 29 66 29 70 -1 29 -83 -122 -95 -173 -5 -27 -13 -34 -43
-42 -54 -15 -165 -31 -170 -26 -7 7 64 111 110 161 23 25 39 47 36 50 -12 12
-109 -80 -152 -145 l-48 -71 -71 1 c-40 1 -98 4 -131 8 l-59 6 41 51 c80 102
221 175 425 220 60 13 131 36 159 51 148 81 180 249 66 355 l-29 27 32 -9 c53
-16 114 -49 160 -88 43 -37 43 -37 21 -6 -112 160 -385 256 -592 209z"/>
<path d="M1394 817 c-1 -92 -6 -126 -28 -194 -70 -215 -206 -313 -436 -313
-118 0 -213 17 -361 65 -165 53 -291 72 -390 57 -73 -10 -178 -46 -168 -57 3
-2 25 3 49 12 25 8 93 18 151 20 l107 6 69 -69 c121 -121 258 -178 428 -178
116 0 184 17 290 72 196 102 328 342 311 562 -10 130 -21 138 -22 17z"/>
</g>
</svg>
